<?xml version="1.0" encoding="iso-8859-1"?>
<!-- Generator: Adobe Illustrator 19.0.0, SVG Export Plug-In . SVG Version: 6.00 Build 0)  -->
<svg version="1.1" id="Layer_1" xmlns="http://www.w3.org/2000/svg" xmlns:xlink="http://www.w3.org/1999/xlink" x="0px" y="0px"
	 viewBox="0 0 511.326 511.326" style="enable-background:new 0 0 511.326 511.326;" xml:space="preserve">
<g>
	<g>
		<g>
			
				<rect x="152.229" y="331.089" transform="matrix(-0.7071 -0.7071 0.7071 -0.7071 35.3246 695.9504)" width="19.14" height="19.14"/>
			
				<rect x="339.962" y="331.089" transform="matrix(-0.7071 -0.7071 0.7071 -0.7071 355.8042 828.6982)" width="19.14" height="19.14"/>
			<path d="M457.749,342.955l-39.953-37.291v-57.958c0-12.928-9.182-24.192-21.359-26.172c-7.458-1.212-15.078,0.87-20.813,5.751
				c-5.734,4.873-9.028,11.981-9.028,19.507v11.085l-11.46-10.692c-14.404-13.457-22.673-32.478-22.673-52.173
				c0-23.603-9.66-46.618-26.505-63.138l-8.243-8.09c-2.116-34.074-9.207-69.982-21.026-105.429l-1.399-4.215
				C272.422,5.547,264.717,0,255.663,0s-16.759,5.547-19.627,14.148l-1.399,4.198c-11.827,35.49-18.918,71.441-21.026,105.446
				l-8.235,8.081c-16.845,16.521-26.513,39.535-26.513,63.138c0,19.695-8.26,38.716-22.665,52.164l-11.469,10.701v-10.172
				c0-12.928-9.182-24.192-21.359-26.172c-7.458-1.212-15.078,0.87-20.813,5.751c-5.734,4.873-9.028,11.981-9.028,19.507v58.871
				l-39.953,37.291c-1.732,1.613-2.714,3.874-2.714,6.238v34.133c0,3.866,2.603,7.253,6.332,8.243l36.335,9.685v41.899
				c0,9.353,7.62,16.973,16.981,16.973h17.246c9.361,0,16.973-7.62,16.973-16.973V415.07c6.741,2.193,12.126,7.049,14.814,13.67
				c2.85,7.04,2.244,14.814-1.664,21.325l-28.996,48.333c-1.758,2.927-1.604,6.622,0.393,9.387c1.63,2.253,4.215,3.541,6.921,3.541
				c0.614,0,1.237-0.068,1.852-0.196l76.8-17.067c3.302-0.734,5.854-3.354,6.519-6.664l5.495-27.494
				c8.363,5.811,18.321,9.054,28.8,9.054s20.437-3.243,28.8-9.054l5.504,27.494c0.657,3.311,3.217,5.931,6.511,6.664l76.8,17.067
				c0.623,0.128,1.237,0.196,1.852,0.196c2.705,0,5.299-1.289,6.921-3.541c1.997-2.765,2.15-6.46,0.401-9.387l-29.005-48.333
				c-3.908-6.511-4.514-14.285-1.655-21.325c2.68-6.622,8.073-11.477,14.805-13.67v28.083c0,9.353,7.62,16.973,16.981,16.973h17.246
				c9.361,0,16.973-7.62,16.973-16.973v-41.899l36.335-9.685c3.738-0.99,6.332-4.378,6.332-8.243v-34.133
				C460.463,346.829,459.482,344.567,457.749,342.955z M110.596,246.793c0-2.509,1.101-4.881,3.012-6.511
				c1.562-1.323,3.482-2.022,5.53-2.022c0.486,0,0.981,0.043,1.493,0.128c3.942,0.64,7.031,4.727,7.031,9.318v26.095l-7.774,7.262
				l-9.293,8.67V246.793z M110.596,443.153v-37.342l17.084,4.557l0.077,32.691L110.596,443.153z M193.429,346.692l-25.6,25.6
				c-1.664,1.664-3.849,2.5-6.033,2.5c-2.185,0-4.361-0.836-6.033-2.5l-25.6-25.6c-3.328-3.336-3.328-8.73,0-12.066l25.6-25.6
				c3.336-3.337,8.738-3.337,12.066,0l25.6,25.6C196.766,337.963,196.766,343.356,193.429,346.692z M281.263,152.926v287.113
				c-6.391,7.544-15.667,11.853-25.6,11.853s-19.209-4.309-25.6-11.853V152.704c-0.111-4.139-0.077-8.354-0.017-12.578
				c0.077-3.635,0.213-7.484,0.427-11.648c1.715-33.673,8.576-69.393,20.361-104.738l1.399-4.198c0.717-2.15,2.458-2.475,3.43-2.475
				c0.981,0,2.722,0.324,3.439,2.466l1.399,4.215c12.023,36.07,18.927,72.542,20.454,106.948c0.145,3.277,0.265,6.4,0.324,9.361
				C281.348,144.376,281.374,148.685,281.263,152.926z M383.663,246.793c0-2.509,1.101-4.881,3.012-6.511
				c1.937-1.647,4.403-2.338,7.023-1.894c3.942,0.64,7.031,4.727,7.031,9.318v42.027l-17.067-15.932V246.793z M381.163,346.692
				l-25.6,25.6c-1.664,1.664-3.849,2.5-6.033,2.5c-2.185,0-4.361-0.836-6.033-2.5l-25.6-25.6c-3.328-3.336-3.328-8.73,0-12.066
				l25.6-25.6c3.336-3.337,8.738-3.337,12.066,0l25.6,25.6C384.499,337.963,384.499,343.356,381.163,346.692z M383.663,443.153
				v-32.785l12.646-3.379l4.446-1.186l0.068,37.257L383.663,443.153z"/>
		</g>
	</g>
</g>
<g>
</g>
<g>
</g>
<g>
</g>
<g>
</g>
<g>
</g>
<g>
</g>
<g>
</g>
<g>
</g>
<g>
</g>
<g>
</g>
<g>
</g>
<g>
</g>
<g>
</g>
<g>
</g>
<g>
</g>
</svg>
