<?xml version="1.0" encoding="utf-8"?>
<!-- Generator: Adobe Illustrator 23.0.0, SVG Export Plug-In . SVG Version: 6.00 Build 0)  -->
<svg version="1.1" id="Capa_1" xmlns="http://www.w3.org/2000/svg" xmlns:xlink="http://www.w3.org/1999/xlink" x="0px" y="0px"
	 viewBox="0 0 462.3 462.3" style="enable-background:new 0 0 462.3 462.3;" xml:space="preserve">
<style type="text/css">
	.st0{fill:none;stroke:url(#SVGID_1_);stroke-miterlimit:10;}
	.st1{fill:none;stroke:url(#SVGID_2_);stroke-miterlimit:10;}
	.st2{fill:none;stroke:url(#SVGID_3_);stroke-miterlimit:10;}
	.st3{fill:none;stroke:url(#SVGID_4_);stroke-miterlimit:10;}
	.st4{fill:none;stroke:url(#SVGID_5_);stroke-miterlimit:10;}
	.st5{fill:none;stroke:url(#SVGID_6_);stroke-miterlimit:10;}
	.st6{fill:none;stroke:url(#SVGID_7_);stroke-miterlimit:10;}
	.st7{fill:none;stroke:url(#SVGID_8_);stroke-miterlimit:10;}
	.st8{fill:none;stroke:url(#SVGID_9_);stroke-miterlimit:10;}
	.st9{fill:none;stroke:url(#SVGID_10_);stroke-miterlimit:10;}
</style>
<g>
	<linearGradient id="SVGID_1_" gradientUnits="userSpaceOnUse" x1="141.961" y1="120.2085" x2="236.196" y2="120.2085">
		<stop  offset="0" style="stop-color:#8646D1"/>
		<stop  offset="1" style="stop-color:#E8289B"/>
	</linearGradient>
	<path class="st0" d="M235.7,81.7c0-4.5-3.6-8.1-8.1-8.1c-46.9,0-85.1,38.2-85.1,85.1c0,4.5,3.6,8.1,8.1,8.1c4.5,0,8.1-3.6,8.1-8.1
		c0-38,30.9-68.8,68.8-68.8C232.1,89.8,235.7,86.2,235.7,81.7z"/>
	<linearGradient id="SVGID_2_" gradientUnits="userSpaceOnUse" x1="107.805" y1="176.9536" x2="357.97" y2="176.9536">
		<stop  offset="0" style="stop-color:#8646D1"/>
		<stop  offset="1" style="stop-color:#E8289B"/>
	</linearGradient>
	<path class="st1" d="M108.3,158.7c0,27.9,9,54.3,26.1,76.3c0.1,0.1,0.2,0.2,0.3,0.3c35.6,49.4,26.7,72.9,26.7,72.9
		c-1.9,4.1-0.1,8.9,3.9,10.8c1.1,0.5,2.3,0.8,3.4,0.8c3.1,0,6-1.7,7.4-4.7c1.5-3.1,13.1-32.2-28.7-89.9c-0.2-0.3-0.4-0.5-0.6-0.7
		c-14.6-19-22.2-41.7-22.2-65.8c0-59.7,48.6-108.3,108.3-108.3S341.2,99,341.2,158.7c0,24.1-7.7,46.9-22.5,66.1
		c-41.8,57.7-29.7,87.2-28.2,90.3c1.9,4,6.6,5.6,10.6,3.8s5.8-6.6,4.1-10.6c-0.1-0.2-9.4-24.2,26.5-73.8
		c16.8-21.9,25.8-48.1,25.8-75.9c0-68.7-55.9-124.6-124.6-124.6S108.3,90,108.3,158.7z"/>
	<linearGradient id="SVGID_3_" gradientUnits="userSpaceOnUse" x1="155.455" y1="347.6295" x2="305.939" y2="347.6295">
		<stop  offset="0" style="stop-color:#8646D1"/>
		<stop  offset="1" style="stop-color:#E8289B"/>
	</linearGradient>
	<path class="st2" d="M305.4,351.1v-6.9c0-11-9-20-20-20H175.9c-11,0-20,9-20,20v6.9c0,11,9,20,20,20h109.5
		C296.5,371.1,305.4,362.1,305.4,351.1z M172.2,351.1v-6.9c0-2,1.7-3.7,3.7-3.7h109.5c2,0,3.7,1.7,3.7,3.7v6.9c0,2-1.7,3.7-3.7,3.7
		H175.9C173.9,354.8,172.2,353.1,172.2,351.1z"/>
	<linearGradient id="SVGID_4_" gradientUnits="userSpaceOnUse" x1="180.458" y1="412.269" x2="285.447" y2="412.269">
		<stop  offset="0" style="stop-color:#8646D1"/>
		<stop  offset="1" style="stop-color:#E8289B"/>
	</linearGradient>
	<path class="st3" d="M189.1,383.4c-4.5,0-8.1,3.6-8.1,8.1V413c0,3.2,1.9,6.1,4.8,7.4l43.8,20c1.1,0.5,2.2,0.7,3.4,0.7
		c1.2,0,2.4-0.3,3.5-0.8l43.9-20.7c2.8-1.3,4.7-4.2,4.7-7.3v-20.7c0-4.5-3.6-8.1-8.1-8.1s-8.1,3.6-8.1,8.1v15.6L232.8,424
		l-35.6-16.3v-16.2C197.2,387,193.6,383.4,189.1,383.4z"/>
	<linearGradient id="SVGID_5_" gradientUnits="userSpaceOnUse" x1="351.9525" y1="280.4246" x2="424.3505" y2="280.4246">
		<stop  offset="0" style="stop-color:#8646D1"/>
		<stop  offset="1" style="stop-color:#E8289B"/>
	</linearGradient>
	<path class="st4" d="M422.3,305.6c2.7-3.6,1.9-8.7-1.7-11.4l-55.1-40.7c-3.6-2.7-8.7-1.9-11.4,1.7c-2.7,3.6-1.9,8.7,1.7,11.4
		l55.1,40.7c1.5,1.1,3.1,1.6,4.8,1.6C418.2,308.9,420.7,307.7,422.3,305.6z"/>
	<linearGradient id="SVGID_6_" gradientUnits="userSpaceOnUse" x1="38.9752" y1="50.1366" x2="112.6195" y2="50.1366">
		<stop  offset="0" style="stop-color:#8646D1"/>
		<stop  offset="1" style="stop-color:#E8289B"/>
	</linearGradient>
	<path class="st5" d="M99.2,77.5c1.5,1.1,3.1,1.6,4.8,1.6c2.5,0,4.9-1.1,6.6-3.3c2.7-3.6,1.9-8.7-1.7-11.4L52.4,22.8
		c-3.6-2.7-8.7-1.9-11.4,1.7c-2.7,3.6-1.9,8.7,1.7,11.4L99.2,77.5z"/>
	<linearGradient id="SVGID_7_" gradientUnits="userSpaceOnUse" x1="38.9865" y1="279.0328" x2="115.1805" y2="279.0328">
		<stop  offset="0" style="stop-color:#8646D1"/>
		<stop  offset="1" style="stop-color:#E8289B"/>
	</linearGradient>
	<path class="st6" d="M101.7,250.8l-58.9,43.5c-3.6,2.7-4.4,7.8-1.7,11.4c1.6,2.2,4.1,3.3,6.6,3.3c1.7,0,3.4-0.5,4.8-1.6l58.9-43.5
		c3.6-2.7,4.4-7.8,1.7-11.4C110.4,248.9,105.3,248.1,101.7,250.8z"/>
	<linearGradient id="SVGID_8_" gradientUnits="userSpaceOnUse" x1="354.3586" y1="48.8" x2="424.3665" y2="48.8">
		<stop  offset="0" style="stop-color:#8646D1"/>
		<stop  offset="1" style="stop-color:#E8289B"/>
	</linearGradient>
	<path class="st7" d="M358.2,61.7c-3.6,2.7-4.4,7.8-1.7,11.4c1.6,2.2,4.1,3.3,6.6,3.3c1.7,0,3.4-0.5,4.8-1.6l52.7-38.9
		c3.6-2.7,4.4-7.8,1.7-11.4c-2.7-3.6-7.7-4.4-11.4-1.7L358.2,61.7z"/>
	<linearGradient id="SVGID_9_" gradientUnits="userSpaceOnUse" x1="383.413" y1="165.062" x2="462.846" y2="165.062">
		<stop  offset="0" style="stop-color:#8646D1"/>
		<stop  offset="1" style="stop-color:#E8289B"/>
	</linearGradient>
	<path class="st8" d="M454.2,156.9H392c-4.5,0-8.1,3.6-8.1,8.1s3.6,8.1,8.1,8.1h62.2c4.5,0,8.1-3.6,8.1-8.1S458.7,156.9,454.2,156.9
		z"/>
	<linearGradient id="SVGID_10_" gradientUnits="userSpaceOnUse" x1="-0.5" y1="165.062" x2="80.916" y2="165.062">
		<stop  offset="0" style="stop-color:#8646D1"/>
		<stop  offset="1" style="stop-color:#E8289B"/>
	</linearGradient>
	<path class="st9" d="M80.4,165.1c0-4.5-3.6-8.1-8.1-8.1H8.1c-4.5,0-8.1,3.6-8.1,8.1s3.6,8.1,8.1,8.1h64.2
		C76.8,173.2,80.4,169.5,80.4,165.1z"/>
</g>
</svg>
