<svg id="Layer_1" data-name="Layer 1" xmlns="http://www.w3.org/2000/svg" xmlns:xlink="http://www.w3.org/1999/xlink" viewBox="0 0 591.80066 458.93519"><defs><linearGradient id="linear-gradient" x1="71.47946" y1="679.96588" x2="140.70006" y2="679.96588" gradientUnits="userSpaceOnUse"><stop offset="0" stop-color="#ff178c"/><stop offset="1" stop-color="#fbae17"/></linearGradient><linearGradient id="linear-gradient-2" x1="104.00653" y1="641.06799" x2="168.91955" y2="641.06799" xlink:href="#linear-gradient"/><linearGradient id="linear-gradient-3" x1="160.80972" y1="611.06676" x2="225.72326" y2="611.06676" xlink:href="#linear-gradient"/><linearGradient id="linear-gradient-4" x1="221.80675" y1="585.57266" x2="298.34452" y2="585.57266" xlink:href="#linear-gradient"/><linearGradient id="linear-gradient-5" x1="278.51426" y1="553.81419" x2="361.89735" y2="553.81419" xlink:href="#linear-gradient"/><linearGradient id="linear-gradient-6" x1="343.70909" y1="525.03082" x2="417.56629" y2="525.03082" xlink:href="#linear-gradient"/><linearGradient id="linear-gradient-7" x1="421.27291" y1="495.21954" x2="490.49301" y2="495.21954" xlink:href="#linear-gradient"/><linearGradient id="linear-gradient-8" x1="465.61143" y1="454.99732" x2="548.99403" y2="454.99732" xlink:href="#linear-gradient"/><linearGradient id="linear-gradient-9" x1="536.29501" y1="421.85734" x2="603.99405" y2="421.85734" xlink:href="#linear-gradient"/><linearGradient id="linear-gradient-10" x1="586.74132" y1="392.8295" x2="663.28011" y2="392.8295" xlink:href="#linear-gradient"/><linearGradient id="linear-gradient-11" x1="189.81553" y1="746.30664" x2="282.16835" y2="746.30664" xlink:href="#linear-gradient"/><linearGradient id="linear-gradient-12" x1="281.94234" y1="716.82257" x2="351.1629" y2="716.82257" xlink:href="#linear-gradient"/><linearGradient id="linear-gradient-13" x1="326.28037" y1="676.60035" x2="409.66395" y2="676.60035" xlink:href="#linear-gradient"/><linearGradient id="linear-gradient-14" x1="409.43794" y1="649.48473" x2="478.65901" y2="649.48473" xlink:href="#linear-gradient"/><linearGradient id="linear-gradient-15" x1="457.07893" y1="611.58405" x2="525.59706" y2="611.58405" xlink:href="#linear-gradient"/><linearGradient id="linear-gradient-16" x1="511.73838" y1="580.45695" x2="588.27713" y2="580.45695" xlink:href="#linear-gradient"/><linearGradient id="linear-gradient-17" x1="568.44639" y1="554.04667" x2="657.29176" y2="554.04667" xlink:href="#linear-gradient"/></defs><title>Text-Ready</title><path d="M139.13574,693.11328l-18.51758,9.7793-9.83691-12.31934-18.228,9.627L93.71,717.10449l-18.51709,9.78028L72.49854,640.978l15.72021-8.30274Zm-38.38281-16.85547-12.56934-18.894-.6748.35644,3.02148,23.937Z" transform="translate(-71.47946 -342.18906)" style="fill:none;stroke-miterlimit:10;stroke-width:2px;stroke:url(#linear-gradient)"/><path d="M147.1543,621.65332l20.52734,56.38281-17.456,9.21973-20.52832-56.38281-18.4209,9.729L105.23779,623.563l54.29834-28.67822,6.03907,17.03906Z" transform="translate(-71.47946 -342.18906)" style="fill:none;stroke-miterlimit:10;stroke-width:2px;stroke:url(#linear-gradient-2)"/><path d="M203.95752,591.65186l20.52783,56.38281-17.45605,9.21972L186.501,600.87158l-18.4209,9.729L162.041,593.562l54.29882-28.67822,6.03858,17.03906Z" transform="translate(-71.47946 -342.18906)" style="fill:none;stroke-miterlimit:10;stroke-width:2px;stroke:url(#linear-gradient-3)"/><path d="M250.69482,580.65967,278.37451,566.04l5.97705,16.45605-27.67968,14.61914,3.95312,10.98633L290.71582,592.209l6.38965,17.47071L249.55859,634.792,223.043,561.4668l47.54687-25.11231,6.29395,17.52149L246.793,569.76855Z" transform="translate(-71.47946 -342.18906)" style="fill:none;stroke-miterlimit:10;stroke-width:2px;stroke:url(#linear-gradient-4)"/><path d="M279.75049,531.51611l16.39551-8.65918,27.8247,22.55469,11.09082,11.65772.335-.3003-6.40722-11.66455-12.01123-33.25,17.16748-9.06738,26.51562,73.32519L343.20508,585.332,317.32324,564.5874,306.04,553.03223l-.33545.2998,7.17139,13.11084,10.65429,29.28076-17.26367,9.11768Z" transform="translate(-71.47946 -342.18906)" style="fill:none;stroke-miterlimit:10;stroke-width:2px;stroke:url(#linear-gradient-5)"/><path d="M370.50293,483.58447c13.69531-7.23291,29.22559-6.5542,35.41113,10.52979l8.84571,24.68554c6.084,16.89258-4.0459,30.877-17.74024,38.10987L371.46094,570.4082,344.94531,497.083Zm20.75586,55.646c4.72559-2.49609,7.59375-7.3418,6.14062-11.26172l-8.84472-24.686c-1.50489-4.01513-6.459-5.22265-11.18457-2.72656l-8.77637,4.63526,13.88867,38.67431Z" transform="translate(-71.47946 -342.18906)" style="fill:none;stroke-miterlimit:10;stroke-width:2px;stroke:url(#linear-gradient-6)"/><path d="M488.92871,508.3667l-18.51758,9.77978-9.83691-12.31982-18.22754,9.62744,1.15625,16.9043-18.5166,9.78027L422.292,456.23193l15.71973-8.30322Zm-38.38281-16.855-12.56934-18.89453-.6748.35644,3.02148,23.9375Z" transform="translate(-71.47946 -342.18906)" style="fill:none;stroke-miterlimit:10;stroke-width:2px;stroke:url(#linear-gradient-7)"/><path d="M466.84766,432.69922l16.3955-8.65918,27.82422,22.55469,11.09082,11.6582.33594-.30078-6.4082-11.66455L504.0752,413.03711l17.167-9.0669,26.51562,73.3252-17.45605,9.21973-25.88184-20.74463-11.2832-11.55518-.335.29932,7.1709,13.11133L510.627,496.90625l-17.26367,9.11816Z" transform="translate(-71.47946 -342.18906)" style="fill:none;stroke-miterlimit:10;stroke-width:2px;stroke:url(#linear-gradient-8)"/><path d="M602.85547,429.81641c-2.07422,16.39062-10.12891,24.9624-18.71289,29.49609-13.40528,7.08008-29.87695,5.78809-35.95508-10.85937l-9.15039-25.26465c-6.02832-16.55176,4.45508-32.20313,18.14941-39.43653,8.39063-4.43164,19.91993-5.957,30.09961,4.208l-11.84668,13.53565c-3.58105-3.04346-8.498-2.54248-12.54882-.40332-4.86719,2.69482-8.35938,7.99267-6.58985,12.978l9.15039,25.26514c1.668,4.792,7.38867,5.34766,12.21094,2.80078a13.52151,13.52151,0,0,0,7.44434-11.82666Z" transform="translate(-71.47946 -342.18906)" style="fill:none;stroke-miterlimit:10;stroke-width:2px;stroke:url(#linear-gradient-9)"/><path d="M615.62891,387.916l27.67968-14.61914,5.97754,16.45556-27.67968,14.61914,3.95312,10.98682,30.09082-15.89258L662.041,416.936l-47.54786,25.11279-26.51562-73.3252,47.54687-25.1123,6.29395,17.521-30.09082,15.89307Z" transform="translate(-71.47946 -342.18906)" style="fill:none;stroke-miterlimit:10;stroke-width:2px;stroke:url(#linear-gradient-10)"/><path d="M191.05176,726.377l17.26367-9.11816L235.585,745.53516l1.56738-43.50684,17.26368-9.11816,26.51611,73.32617-17.35986,9.16894-7.59473-21.15136-4.39063-15.32032-.5332.15918.1294,29.9043-11.8628,6.26563-18.26074-20.32911-.335.29981,6.4165,14.251L234.832,790.585l-17.26367,9.11817Z" transform="translate(-71.47946 -342.18906)" style="fill:none;stroke-miterlimit:10;stroke-width:2px;stroke:url(#linear-gradient-11)"/><path d="M349.59863,729.96973,331.08154,739.75l-9.8374-12.32129-18.228,9.62793,1.15723,16.90527-18.51709,9.78028L282.96143,677.834l15.72021-8.30273Zm-38.38281-16.85645-12.56934-18.89355-.6748.35644,3.02148,23.9375Z" transform="translate(-71.47946 -342.18906)" style="fill:none;stroke-miterlimit:10;stroke-width:2px;stroke:url(#linear-gradient-12)"/><path d="M327.5166,654.30176l16.396-8.65967,27.8247,22.55518,11.0918,11.6582.334-.29981-6.40723-11.665-12.01123-33.251,17.16748-9.0669,26.51562,73.32569-17.45605,9.21972L365.08984,687.374l-11.2832-11.55566-.335.2998,7.1709,13.11036,10.6543,29.28125-17.26368,9.11816Z" transform="translate(-71.47946 -342.18906)" style="fill:none;stroke-miterlimit:10;stroke-width:2px;stroke:url(#linear-gradient-13)"/><path d="M477.09473,662.63184l-18.51758,9.78027-9.83692-12.32129-18.22851,9.62793,1.15723,16.9043-18.51661,9.78125L410.457,610.49609l15.7207-8.30273Zm-38.38282-16.856-12.56933-18.89453-.67481.35693,3.02051,23.937Z" transform="translate(-71.47946 -342.18906)" style="fill:none;stroke-miterlimit:10;stroke-width:2px;stroke:url(#linear-gradient-14)"/><path d="M495.32031,591.5791c-3.20019-3.49072-7.833-3.38818-11.6914-1.35058-4.82227,2.54687-8.40528,8.14013-6.4834,13.415l9.09863,25.168c2.07617,5.56543,7.8877,5.82618,12.999,3.12647,5.01563-2.64893,9.041-8.105,6.96582-13.67041l-1.14257-3.09619L494.168,620.92725l-5.50781-15.10108,27.48632-14.51709,6.6504,18.19727c6.085,16.89209-4.1084,32.39013-17.80274,39.62353-13.50293,7.13086-29.92773,5.6919-36.01269-11.20019l-9.09864-25.16846c-6.18652-17.085,4.459-31.959,17.96094-39.09033,8.873-4.686,20.4541-6.11377,29.39258,3.10254Z" transform="translate(-71.47946 -342.18906)" style="fill:none;stroke-miterlimit:10;stroke-width:2px;stroke:url(#linear-gradient-15)"/><path d="M540.627,575.543l27.67969-14.61914,5.97754,16.45556L546.60449,591.999l3.95313,10.98633,30.09082-15.89258,6.38965,17.47119-47.54688,25.1128-26.5166-73.32617,47.54687-25.11231,6.29395,17.521-30.09082,15.89306Z" transform="translate(-71.47946 -342.18906)" style="fill:none;stroke-miterlimit:10;stroke-width:2px;stroke:url(#linear-gradient-16)"/><path d="M608.26953,565.5957l-3.08594,1.62989,8.47168,23.28027-17.45605,9.21973-26.5166-73.32569,27.29394-14.41552c14.08008-7.437,28.084-5.21192,34.61133,11.8164,4.93652,13.55176,1.77734,20.64746-5.23535,30.0249L655.127,568.60254l-21.50781,11.35937Zm1.31836-19.6914a9.92573,9.92573,0,0,0,4.69629-12.59375c-1.708-4.40235-5.61816-6.90039-10.73047-4.20117l-10.126,5.34863,6.03321,16.79492Z" transform="translate(-71.47946 -342.18906)" style="fill:none;stroke-miterlimit:10;stroke-width:2px;stroke:url(#linear-gradient-17)"/></svg>